{"asset":{"generator":"Khronos glTF Spline I/O v0.0.1","version":"2.0"},"scenes":[{"nodes":[0]}],"nodes":[{"name":"Calculator","children":[1,2,3,4,5]},{"name":"Empty Object","matrix":[1,0,0,0,0,1,0,0,0,0,1,0,38.49999999999997,-283.5,60.909472621230194,1],"children":[6]},{"name":"Text","matrix":[1,0,0,0,0,1,0,0,0,0,1,0,187.93645337402654,-23.097672284211512,109.55922617792669,1],"mesh":0},{"name":"Cube copy","matrix":[1,0,0,0,0,1,0,0,0,0,0.5992951533489287,0,38.49999999999986,-34.492528209657195,58.06125092729916,1],"mesh":1},{"name":"Cube","matrix":[1,0,0,0,0,1,0,0,0,0,0.5992951533489287,0,38.49999999999997,-283.5,44.62165734537586,1],"mesh":2},{"name":"Default Camera","camera":0,"translation":[52.318902698668595,-469.89923923438516,1904.4867594822458],"rotation":[0.0633728344815639,0.00801824508341177,-0.0005091788754047702,0.9979575804273585],"children":[7]},{"name":"Empty Object","matrix":[1,0,0,0,0,1,0,0,0,0,1,0,0,0,0,1],"children":[8]},{"name":"Default Directional Light","translation":[850000,1300000,1000000],"rotation":[-0.45895513091666534,0.1367267597249462,-0.25064115022945466,0.8413352451859125],"extensions":{"KHR_lights_punctual":{"light":0}}},{"name":"Empty Object","matrix":[1,0,0,0,0,1,0,0,0,0,1,0,0,0,0,1],"children":[9]},{"name":"Empty Object","matrix":[1,0,0,0,0,1,0,0,0,0,1,0,0,0,0,1],"children":[10]},{"name":"Empty Object","matrix":[1,0,0,0,0,1,0,0,0,0,1,0,0,0,0,1],"children":[11]},{"name":"Empty Object","matrix":[1,0,0,0,0,1,0,0,0,0,1,0,0,0,0,1],"children":[12,13,14,15,16,17,18,19]},{"name":"Numerial","matrix":[1,0,0,0,0,1,0,0,0,0,1,0,-48.278112442939076,-154.30018588784844,-1.6885100615030737,1],"children":[20,21,22,23,24,25,26,27]},{"name":"Cylinder 7","matrix":[0.8911459148465686,0,0,0,0,1.9853399969767506e-16,0.8888888888888888,0,0,-0.8941176470588236,1.9737298215558337e-16,0,140.18422666450763,-258.13848403588986,26.02115745869881,1],"mesh":3},{"name":"Cylinder 6","matrix":[0.8911459148465686,0,0,0,0,1.9853399969767506e-16,0.8888888888888888,0,0,-0.8941176470588236,1.9737298215558337e-16,0,140.18422666450763,-151.11015631138298,26.02115745869878,1],"mesh":4},{"name":"Cylinder 5","matrix":[0.8911459148465686,0,0,0,0,1.9853399969767506e-16,0.8888888888888888,0,0,-0.8941176470588236,1.9737298215558337e-16,0,140.18422666450763,-50.46188773980714,26.021157458698767,1],"mesh":5},{"name":"Cylinder 4","matrix":[0.8911459148465686,0,0,0,0,1.9853399969767506e-16,0.8888888888888888,0,0,-0.8941176470588236,1.9737298215558337e-16,0,140.18422666450763,47.49974522299243,26.021157458698752,1],"mesh":6},{"name":"Cylinder 3","matrix":[0.8911459148465686,0,0,0,0,1.9853399969767506e-16,0.8888888888888888,0,0,-0.8941176470588236,1.9737298215558337e-16,0,43.76951837259616,47.49974522299243,26.021157458698752,1],"mesh":7},{"name":"Cylinder 2","matrix":[0.8911459148465686,0,0,0,0,1.9853399969767506e-16,0.8888888888888888,0,0,-0.8941176470588236,1.9737298215558337e-16,0,-50.861266324960965,47.49974522299243,26.021157458698752,1],"mesh":8},{"name":"Cylinder","matrix":[0.8911459148465684,0,0,0,0,1.985339996976751e-16,0.8888888888888891,0,0,-0.8941176470588238,1.9737298215558342e-16,0,-153.1262986190209,47.499745222992516,23.701734193842867,1],"mesh":9},{"name":"Cylinder 8","matrix":[0.8911459148465686,0,0,0,0,1.9853399969767506e-16,0.8888888888888888,0,0,-0.8941176470588236,1.9737298215558337e-16,0,97.32928314441071,-103.83829814804142,27.709667520201883,1],"mesh":10},{"name":"Cylinder 11","matrix":[0.8911459148465685,0,0,0,0,1.9853399969767506e-16,0.8888888888888888,0,0,-0.8941176470588236,1.9737298215558337e-16,0,-0.268887018644147,3.190029576465463,27.70966752020184,1],"mesh":11},{"name":"Cylinder 11","matrix":[0.8911459148465685,0,0,0,0,1.9853399969767506e-16,0.8888888888888888,0,0,-0.8941176470588236,1.9737298215558337e-16,0,-0.268887018644147,103.8382981480413,27.70966752020184,1],"mesh":12},{"name":"Cylinder 11","matrix":[0.8911459148465685,0,0,0,0,1.9853399969767506e-16,0.8888888888888888,0,0,-0.8941176470588236,1.9737298215558337e-16,0,-96.6835953105556,3.512848463169121,27.70966752020184,1],"mesh":13},{"name":"Cylinder 10","matrix":[0.8911459148465686,0,0,0,0,1.9853399969767506e-16,0.8888888888888888,0,0,-0.8941176470588236,1.9737298215558337e-16,0,92.04763081553523,3.512848463169121,27.70966752020184,1],"mesh":14},{"name":"Cylinder 11","matrix":[0.8911459148465685,0,0,0,0,1.9853399969767506e-16,0.8888888888888888,0,0,-0.8941176470588236,1.9737298215558337e-16,0,-96.6835953105556,102.04497934772115,27.70966752020184,1],"mesh":15},{"name":"Cylinder 9","matrix":[0.8911459148465686,0,0,0,0,1.9853399969767506e-16,0.8888888888888888,0,0,-0.8941176470588236,1.9737298215558337e-16,0,92.04763081553523,102.04497934772115,27.70966752020184,1],"mesh":16},{"name":"Cube 2","matrix":[1,0,0,0,0,1,0,0,0,0,0.5992951533489287,0,-46.70298452538991,-103.8382981480413,-1.1597116324279568,1],"mesh":17}],"cameras":[{"type":"perspective","perspective":{"aspectRatio":1.661473087818697,"yfov":0.7853981633974483,"znear":50,"zfar":50000}}],"meshes":[{"primitives":[{"attributes":{"POSITION":1,"NORMAL":2,"TEXCOORD_0":3},"indices":0}]},{"primitives":[{"attributes":{"POSITION":5,"NORMAL":6,"TEXCOORD_0":7},"indices":4}]},{"primitives":[{"attributes":{"POSITION":9,"NORMAL":10,"TEXCOORD_0":11},"indices":8}]},{"primitives":[{"attributes":{"POSITION":13,"NORMAL":14,"TEXCOORD_0":15},"indices":12}]},{"primitives":[{"attributes":{"POSITION":17,"NORMAL":18,"TEXCOORD_0":19},"indices":16}]},{"primitives":[{"attributes":{"POSITION":21,"NORMAL":22,"TEXCOORD_0":23},"indices":20}]},{"primitives":[{"attributes":{"POSITION":25,"NORMAL":26,"TEXCOORD_0":27},"indices":24}]},{"primitives":[{"attributes":{"POSITION":29,"NORMAL":30,"TEXCOORD_0":31},"indices":28}]},{"primitives":[{"attributes":{"POSITION":33,"NORMAL":34,"TEXCOORD_0":35},"indices":32}]},{"primitives":[{"attributes":{"POSITION":37,"NORMAL":38,"TEXCOORD_0":39},"indices":36}]},{"primitives":[{"attributes":{"POSITION":41,"NORMAL":42,"TEXCOORD_0":43},"indices":40}]},{"primitives":[{"attributes":{"POSITION":45,"NORMAL":46,"TEXCOORD_0":47},"indices":44}]},{"primitives":[{"attributes":{"POSITION":49,"NORMAL":50,"TEXCOORD_0":51},"indices":48}]},{"primitives":[{"attributes":{"POSITION":53,"NORMAL":54,"TEXCOORD_0":55},"indices":52}]},{"primitives":[{"attributes":{"POSITION":57,"NORMAL":58,"TEXCOORD_0":59},"indices":56}]},{"primitives":[{"attributes":{"POSITION":61,"NORMAL":62,"TEXCOORD_0":63},"indices":60}]},{"primitives":[{"attributes":{"POSITION":65,"NORMAL":66,"TEXCOORD_0":67},"indices":64}]},{"primitives":[{"attributes":{"POSITION":69,"NORMAL":70,"TEXCOORD_0":71},"indices":68}]}],"buffers":[{"uri":"data:application/octet-stream;base64,","byteLength":140},{"uri":"data:application/octet-stream;base64,","byteLength":23496},{"uri":"data:application/octet-stream;base64,","byteLength":23496},{"uri":"data:application/octet-stream;base64,","byteLength":67200},{"uri":"data:application/octet-stream;base64,","byteLength":67200},{"uri":"data:application/octet-stream;base64,","byteLength":67200},{"uri":"data:application/octet-stream;base64,","byteLength":67200},{"uri":"data:application/octet-stream;base64,","byteLength":67200},{"uri":"data:application/octet-stream;base64,","byteLength":67200},{"uri":"data:application/octet-stream;base64,","byteLength":67200},{"uri":"data:application/octet-stream;base64,","byteLength":67200},{"uri":"data:application/octet-stream;base64,","byteLength":67200},{"uri":"data:application/octet-stream;base64,","byteLength":67200},{"uri":"data:application/octet-stream;base64,","byteLength":67200},{"uri":"data:application/octet-stream;base64,","byteLength":67200},{"uri":"data:application/octet-stream;base64,","byteLength":67200},{"uri":"data:application/octet-stream;base64,","byteLength":67200},{"uri":"data:application/octet-stream;base64,","byteLength":23496}],"bufferViews":[{"buffer":0,"byteOffset":0,"byteLength":12,"target":34963},{"buffer":0,"byteOffset":12,"byteLength":48,"target":34962},{"buffer":0,"byteOffset":60,"byteLength":48,"target":34962},{"buffer":0,"byteOffset":108,"byteLength":32,"target":34962},{"buffer":1,"byteOffset":0,"byteLength":4296,"target":34963},{"buffer":1,"byteOffset":4296,"byteLength":7200,"target":34962},{"buffer":1,"byteOffset":11496,"byteLength":7200,"target":34962},{"buffer":1,"byteOffset":18696,"byteLength":4800,"target":34962},{"buffer":2,"byteOffset":0,"byteLength":4296,"target":34963},{"buffer":2,"byteOffset":4296,"byteLength":7200,"target":34962},{"buffer":2,"byteOffset":11496,"byteLength":7200,"target":34962},{"buffer":2,"byteOffset":18696,"byteLength":4800,"target":34962},{"buffer":3,"byteOffset":0,"byteLength":17280,"target":34963},{"buffer":3,"byteOffset":17280,"byteLength":18720,"target":34962},{"buffer":3,"byteOffset":36000,"byteLength":18720,"target":34962},{"buffer":3,"byteOffset":54720,"byteLength":12480,"target":34962},{"buffer":4,"byteOffset":0,"byteLength":17280,"target":34963},{"buffer":4,"byteOffset":17280,"byteLength":18720,"target":34962},{"buffer":4,"byteOffset":36000,"byteLength":18720,"target":34962},{"buffer":4,"byteOffset":54720,"byteLength":12480,"target":34962},{"buffer":5,"byteOffset":0,"byteLength":17280,"target":34963},{"buffer":5,"byteOffset":17280,"byteLength":18720,"target":34962},{"buffer":5,"byteOffset":36000,"byteLength":18720,"target":34962},{"buffer":5,"byteOffset":54720,"byteLength":12480,"target":34962},{"buffer":6,"byteOffset":0,"byteLength":17280,"target":34963},{"buffer":6,"byteOffset":17280,"byteLength":18720,"target":34962},{"buffer":6,"byteOffset":36000,"byteLength":18720,"target":34962},{"buffer":6,"byteOffset":54720,"byteLength":12480,"target":34962},{"buffer":7,"byteOffset":0,"byteLength":17280,"target":34963},{"buffer":7,"byteOffset":17280,"byteLength":18720,"target":34962},{"buffer":7,"byteOffset":36000,"byteLength":18720,"target":34962},{"buffer":7,"byteOffset":54720,"byteLength":12480,"target":34962},{"buffer":8,"byteOffset":0,"byteLength":17280,"target":34963},{"buffer":8,"byteOffset":17280,"byteLength":18720,"target":34962},{"buffer":8,"byteOffset":36000,"byteLength":18720,"target":34962},{"buffer":8,"byteOffset":54720,"byteLength":12480,"target":34962},{"buffer":9,"byteOffset":0,"byteLength":17280,"target":34963},{"buffer":9,"byteOffset":17280,"byteLength":18720,"target":34962},{"buffer":9,"byteOffset":36000,"byteLength":18720,"target":34962},{"buffer":9,"byteOffset":54720,"byteLength":12480,"target":34962},{"buffer":10,"byteOffset":0,"byteLength":17280,"target":34963},{"buffer":10,"byteOffset":17280,"byteLength":18720,"target":34962},{"buffer":10,"byteOffset":36000,"byteLength":18720,"target":34962},{"buffer":10,"byteOffset":54720,"byteLength":12480,"target":34962},{"buffer":11,"byteOffset":0,"byteLength":17280,"target":34963},{"buffer":11,"byteOffset":17280,"byteLength":18720,"target":34962},{"buffer":11,"byteOffset":36000,"byteLength":18720,"target":34962},{"buffer":11,"byteOffset":54720,"byteLength":12480,"target":34962},{"buffer":12,"byteOffset":0,"byteLength":17280,"target":34963},{"buffer":12,"byteOffset":17280,"byteLength":18720,"target":34962},{"buffer":12,"byteOffset":36000,"byteLength":18720,"target":34962},{"buffer":12,"byteOffset":54720,"byteLength":12480,"target":34962},{"buffer":13,"byteOffset":0,"byteLength":17280,"target":34963},{"buffer":13,"byteOffset":17280,"byteLength":18720,"target":34962},{"buffer":13,"byteOffset":36000,"byteLength":18720,"target":34962},{"buffer":13,"byteOffset":54720,"byteLength":12480,"target":34962},{"buffer":14,"byteOffset":0,"byteLength":17280,"target":34963},{"buffer":14,"byteOffset":17280,"byteLength":18720,"target":34962},{"buffer":14,"byteOffset":36000,"byteLength":18720,"target":34962},{"buffer":14,"byteOffset":54720,"byteLength":12480,"target":34962},{"buffer":15,"byteOffset":0,"byteLength":17280,"target":34963},{"buffer":15,"byteOffset":17280,"byteLength":18720,"target":34962},{"buffer":15,"byteOffset":36000,"byteLength":18720,"target":34962},{"buffer":15,"byteOffset":54720,"byteLength":12480,"target":34962},{"buffer":16,"byteOffset":0,"byteLength":17280,"target":34963},{"buffer":16,"byteOffset":17280,"byteLength":18720,"target":34962},{"buffer":16,"byteOffset":36000,"byteLength":18720,"target":34962},{"buffer":16,"byteOffset":54720,"byteLength":12480,"target":34962},{"buffer":17,"byteOffset":0,"byteLength":4296,"target":34963},{"buffer":17,"byteOffset":4296,"byteLength":7200,"target":34962},{"buffer":17,"byteOffset":11496,"byteLength":7200,"target":34962},{"buffer":17,"byteOffset":18696,"byteLength":4800,"target":34962}],"accessors":[{"bufferView":0,"byteOffset":0,"componentType":5123,"count":6,"type":"SCALAR","min":[0],"max":[3]},{"bufferView":1,"byteOffset":0,"componentType":5126,"count":4,"type":"VEC3","min":[-30,-30,0],"max":[30,30,0]},{"bufferView":2,"byteOffset":0,"componentType":5126,"count":4,"type":"VEC3","min":[0,0,1],"max":[0,0,1]},{"bufferView":3,"byteOffset":0,"componentType":5126,"count":4,"type":"VEC2","min":[0,0],"max":[1,1]},{"bufferView":4,"byteOffset":0,"componentType":5123,"count":2148,"type":"SCALAR","min":[0],"max":[599]},{"bufferView":5,"byteOffset":0,"componentType":5126,"count":600,"type":"VEC3","min":[-191,-69.5,-71],"max":[191,69.5,71]},{"bufferView":6,"byteOffset":0,"componentType":5126,"count":600,"type":"VEC3","min":[-1,-1,-1],"max":[1,1,1]},{"bufferView":7,"byteOffset":0,"componentType":5126,"count":600,"type":"VEC2","min":[0,0],"max":[1,1]},{"bufferView":8,"byteOffset":0,"componentType":5123,"count":2148,"type":"SCALAR","min":[0],"max":[599]},{"bufferView":9,"byteOffset":0,"componentType":5126,"count":600,"type":"VEC3","min":[-225.5,-367.5,-54],"max":[225.5,367.5,54]},{"bufferView":10,"byteOffset":0,"componentType":5126,"count":600,"type":"VEC3","min":[-1,-1,-1],"max":[1,1,1]},{"bufferView":11,"byteOffset":0,"componentType":5126,"count":600,"type":"VEC2","min":[0,0],"max":[1,1]},{"bufferView":12,"byteOffset":0,"componentType":5123,"count":8640,"type":"SCALAR","min":[0],"max":[1558]},{"bufferView":13,"byteOffset":0,"componentType":5126,"count":1560,"type":"VEC3","min":[-42.5,-18,-42.5],"max":[42.5,18,42.5]},{"bufferView":14,"byteOffset":0,"componentType":5126,"count":1560,"type":"VEC3","min":[-1,-1,-1],"max":[1,1,1]},{"bufferView":15,"byteOffset":0,"componentType":5126,"count":1560,"type":"VEC2","min":[0,0],"max":[1,1]},{"bufferView":16,"byteOffset":0,"componentType":5123,"count":8640,"type":"SCALAR","min":[0],"max":[1558]},{"bufferView":17,"byteOffset":0,"componentType":5126,"count":1560,"type":"VEC3","min":[-42.5,-18,-42.5],"max":[42.5,18,42.5]},{"bufferView":18,"byteOffset":0,"componentType":5126,"count":1560,"type":"VEC3","min":[-1,-1,-1],"max":[1,1,1]},{"bufferView":19,"byteOffset":0,"componentType":5126,"count":1560,"type":"VEC2","min":[0,0],"max":[1,1]},{"bufferView":20,"byteOffset":0,"componentType":5123,"count":8640,"type":"SCALAR","min":[0],"max":[1558]},{"bufferView":21,"byteOffset":0,"componentType":5126,"count":1560,"type":"VEC3","min":[-42.5,-18,-42.5],"max":[42.5,18,42.5]},{"bufferView":22,"byteOffset":0,"componentType":5126,"count":1560,"type":"VEC3","min":[-1,-1,-1],"max":[1,1,1]},{"bufferView":23,"byteOffset":0,"componentType":5126,"count":1560,"type":"VEC2","min":[0,0],"max":[1,1]},{"bufferView":24,"byteOffset":0,"componentType":5123,"count":8640,"type":"SCALAR","min":[0],"max":[1558]},{"bufferView":25,"byteOffset":0,"componentType":5126,"count":1560,"type":"VEC3","min":[-42.5,-18,-42.5],"max":[42.5,18,42.5]},{"bufferView":26,"byteOffset":0,"componentType":5126,"count":1560,"type":"VEC3","min":[-1,-1,-1],"max":[1,1,1]},{"bufferView":27,"byteOffset":0,"componentType":5126,"count":1560,"type":"VEC2","min":[0,0],"max":[1,1]},{"bufferView":28,"byteOffset":0,"componentType":5123,"count":8640,"type":"SCALAR","min":[0],"max":[1558]},{"bufferView":29,"byteOffset":0,"componentType":5126,"count":1560,"type":"VEC3","min":[-42.5,-18,-42.5],"max":[42.5,18,42.5]},{"bufferView":30,"byteOffset":0,"componentType":5126,"count":1560,"type":"VEC3","min":[-1,-1,-1],"max":[1,1,1]},{"bufferView":31,"byteOffset":0,"componentType":5126,"count":1560,"type":"VEC2","min":[0,0],"max":[1,1]},{"bufferView":32,"byteOffset":0,"componentType":5123,"count":8640,"type":"SCALAR","min":[0],"max":[1558]},{"bufferView":33,"byteOffset":0,"componentType":5126,"count":1560,"type":"VEC3","min":[-42.5,-18,-42.5],"max":[42.5,18,42.5]},{"bufferView":34,"byteOffset":0,"componentType":5126,"count":1560,"type":"VEC3","min":[-1,-1,-1],"max":[1,1,1]},{"bufferView":35,"byteOffset":0,"componentType":5126,"count":1560,"type":"VEC2","min":[0,0],"max":[1,1]},{"bufferView":36,"byteOffset":0,"componentType":5123,"count":8640,"type":"SCALAR","min":[0],"max":[1558]},{"bufferView":37,"byteOffset":0,"componentType":5126,"count":1560,"type":"VEC3","min":[-42.5,-18,-42.5],"max":[42.5,18,42.5]},{"bufferView":38,"byteOffset":0,"componentType":5126,"count":1560,"type":"VEC3","min":[-1,-1,-1],"max":[1,1,1]},{"bufferView":39,"byteOffset":0,"componentType":5126,"count":1560,"type":"VEC2","min":[0,0],"max":[1,1]},{"bufferView":40,"byteOffset":0,"componentType":5123,"count":8640,"type":"SCALAR","min":[0],"max":[1558]},{"bufferView":41,"byteOffset":0,"componentType":5126,"count":1560,"type":"VEC3","min":[-42.5,-18,-42.5],"max":[42.5,18,42.5]},{"bufferView":42,"byteOffset":0,"componentType":5126,"count":1560,"type":"VEC3","min":[-1,-1,-1],"max":[1,1,1]},{"bufferView":43,"byteOffset":0,"componentType":5126,"count":1560,"type":"VEC2","min":[0,0],"max":[1,1]},{"bufferView":44,"byteOffset":0,"componentType":5123,"count":8640,"type":"SCALAR","min":[0],"max":[1558]},{"bufferView":45,"byteOffset":0,"componentType":5126,"count":1560,"type":"VEC3","min":[-42.5,-18,-42.5],"max":[42.5,18,42.5]},{"bufferView":46,"byteOffset":0,"componentType":5126,"count":1560,"type":"VEC3","min":[-1,-1,-1],"max":[1,1,1]},{"bufferView":47,"byteOffset":0,"componentType":5126,"count":1560,"type":"VEC2","min":[0,0],"max":[1,1]},{"bufferView":48,"byteOffset":0,"componentType":5123,"count":8640,"type":"SCALAR","min":[0],"max":[1558]},{"bufferView":49,"byteOffset":0,"componentType":5126,"count":1560,"type":"VEC3","min":[-42.5,-18,-42.5],"max":[42.5,18,42.5]},{"bufferView":50,"byteOffset":0,"componentType":5126,"count":1560,"type":"VEC3","min":[-1,-1,-1],"max":[1,1,1]},{"bufferView":51,"byteOffset":0,"componentType":5126,"count":1560,"type":"VEC2","min":[0,0],"max":[1,1]},{"bufferView":52,"byteOffset":0,"componentType":5123,"count":8640,"type":"SCALAR","min":[0],"max":[1558]},{"bufferView":53,"byteOffset":0,"componentType":5126,"count":1560,"type":"VEC3","min":[-42.5,-18,-42.5],"max":[42.5,18,42.5]},{"bufferView":54,"byteOffset":0,"componentType":5126,"count":1560,"type":"VEC3","min":[-1,-1,-1],"max":[1,1,1]},{"bufferView":55,"byteOffset":0,"componentType":5126,"count":1560,"type":"VEC2","min":[0,0],"max":[1,1]},{"bufferView":56,"byteOffset":0,"componentType":5123,"count":8640,"type":"SCALAR","min":[0],"max":[1558]},{"bufferView":57,"byteOffset":0,"componentType":5126,"count":1560,"type":"VEC3","min":[-42.5,-18,-42.5],"max":[42.5,18,42.5]},{"bufferView":58,"byteOffset":0,"componentType":5126,"count":1560,"type":"VEC3","min":[-1,-1,-1],"max":[1,1,1]},{"bufferView":59,"byteOffset":0,"componentType":5126,"count":1560,"type":"VEC2","min":[0,0],"max":[1,1]},{"bufferView":60,"byteOffset":0,"componentType":5123,"count":8640,"type":"SCALAR","min":[0],"max":[1558]},{"bufferView":61,"byteOffset":0,"componentType":5126,"count":1560,"type":"VEC3","min":[-42.5,-18,-42.5],"max":[42.5,18,42.5]},{"bufferView":62,"byteOffset":0,"componentType":5126,"count":1560,"type":"VEC3","min":[-1,-1,-1],"max":[1,1,1]},{"bufferView":63,"byteOffset":0,"componentType":5126,"count":1560,"type":"VEC2","min":[0,0],"max":[1,1]},{"bufferView":64,"byteOffset":0,"componentType":5123,"count":8640,"type":"SCALAR","min":[0],"max":[1558]},{"bufferView":65,"byteOffset":0,"componentType":5126,"count":1560,"type":"VEC3","min":[-42.5,-18,-42.5],"max":[42.5,18,42.5]},{"bufferView":66,"byteOffset":0,"componentType":5126,"count":1560,"type":"VEC3","min":[-1,-1,-1],"max":[1,1,1]},{"bufferView":67,"byteOffset":0,"componentType":5126,"count":1560,"type":"VEC2","min":[0,0],"max":[1,1]},{"bufferView":68,"byteOffset":0,"componentType":5123,"count":2148,"type":"SCALAR","min":[0],"max":[599]},{"bufferView":69,"byteOffset":0,"componentType":5126,"count":600,"type":"VEC3","min":[-88.5,-34.5,-71],"max":[88.5,34.5,71]},{"bufferView":70,"byteOffset":0,"componentType":5126,"count":600,"type":"VEC3","min":[-1,-1,-1],"max":[1,1,1]},{"bufferView":71,"byteOffset":0,"componentType":5126,"count":600,"type":"VEC2","min":[0,0],"max":[1,1]}],"extensions":{"KHR_lights_punctual":{"lights":[{"type":"directional","name":"Default Directional Light","color":[1,1,1],"intensity":0.75}]}},"extensionsUsed":["KHR_lights_punctual"]}